<svg width="20" height="20" viewBox="0 0 20 20" fill="none" xmlns="http://www.w3.org/2000/svg">
<path fill-rule="evenodd" clip-rule="evenodd" d="M10 0C4.47739 0 0 4.47652 0 10C0 15.5226 4.47739 20 10 20C15.5226 20 20 15.5226 20 10C20 4.47652 15.5226 0 10 0ZM10 0.869565C15.0348 0.869565 19.1304 4.96522 19.1304 10C19.1304 15.0348 15.0348 19.1304 10 19.1304C4.96522 19.1304 0.869565 15.0348 0.869565 10C0.869565 4.96522 4.96522 0.869565 10 0.869565Z" fill="#EFEBE4"/>
<path d="M10 4V16" stroke="#EFEBE4" stroke-width="0.905199"/>
<path d="M16 10H4" stroke="#EFEBE4" stroke-width="0.905199"/>
<mask id="mask0" mask-type="alpha" maskUnits="userSpaceOnUse" x="4" y="9" width="12" height="2">
<path fill-rule="evenodd" clip-rule="evenodd" d="M16 10H4H16Z" fill="white"/>
<path d="M16 10H4" stroke="white" stroke-width="0.905199"/>
</mask>
<g mask="url(#mask0)">
</g>
</svg>
